<mxfile host="app.diagrams.net" modified="2023-11-16T01:26:26.931Z" agent="Mozilla/5.0 (Macintosh; Intel Mac OS X 10_15_7) AppleWebKit/537.36 (KHTML, like Gecko) Chrome/117.0.0.0 Safari/537.36" etag="HcKMvdfBQ6A8XRRA0_-Y" version="22.1.2" type="device">
  <diagram id="C5RBs43oDa-KdzZeNtuy" name="Page-1">
    <mxGraphModel dx="2553" dy="1080" grid="1" gridSize="10" guides="1" tooltips="1" connect="1" arrows="1" fold="1" page="1" pageScale="1" pageWidth="827" pageHeight="1169" math="0" shadow="0">
      <root>
        <mxCell id="WIyWlLk6GJQsqaUBKTNV-0" />
        <mxCell id="WIyWlLk6GJQsqaUBKTNV-1" parent="WIyWlLk6GJQsqaUBKTNV-0" />
        <mxCell id="Fn4uZTVtMZI9myQDbYoV-48" value="" style="shape=table;startSize=0;container=1;collapsible=0;childLayout=tableLayout;fontSize=16;fontStyle=1;align=left;" parent="WIyWlLk6GJQsqaUBKTNV-1" vertex="1">
          <mxGeometry x="20" y="50" width="210" height="229" as="geometry" />
        </mxCell>
        <mxCell id="Fn4uZTVtMZI9myQDbYoV-70" style="shape=tableRow;horizontal=0;startSize=0;swimlaneHead=0;swimlaneBody=0;strokeColor=inherit;top=0;left=0;bottom=0;right=0;collapsible=0;dropTarget=0;fillColor=none;points=[[0,0.5],[1,0.5]];portConstraint=eastwest;fontSize=16;" parent="Fn4uZTVtMZI9myQDbYoV-48" vertex="1">
          <mxGeometry width="210" height="29" as="geometry" />
        </mxCell>
        <mxCell id="Fn4uZTVtMZI9myQDbYoV-71" value="artist" style="shape=partialRectangle;html=1;whiteSpace=wrap;connectable=0;strokeColor=inherit;overflow=hidden;fillColor=none;top=0;left=0;bottom=0;right=0;pointerEvents=1;fontSize=16;fontStyle=1" parent="Fn4uZTVtMZI9myQDbYoV-70" vertex="1">
          <mxGeometry width="210" height="29" as="geometry">
            <mxRectangle width="210" height="29" as="alternateBounds" />
          </mxGeometry>
        </mxCell>
        <mxCell id="Fn4uZTVtMZI9myQDbYoV-68" style="shape=tableRow;horizontal=0;startSize=0;swimlaneHead=0;swimlaneBody=0;strokeColor=inherit;top=0;left=0;bottom=0;right=0;collapsible=0;dropTarget=0;fillColor=none;points=[[0,0.5],[1,0.5]];portConstraint=eastwest;fontSize=16;" parent="Fn4uZTVtMZI9myQDbYoV-48" vertex="1">
          <mxGeometry y="29" width="210" height="28" as="geometry" />
        </mxCell>
        <mxCell id="Fn4uZTVtMZI9myQDbYoV-69" value="&lt;u&gt;artist_id&lt;/u&gt;" style="shape=partialRectangle;html=1;whiteSpace=wrap;connectable=0;strokeColor=inherit;overflow=hidden;fillColor=none;top=0;left=0;bottom=0;right=0;pointerEvents=1;fontSize=16;align=left;" parent="Fn4uZTVtMZI9myQDbYoV-68" vertex="1">
          <mxGeometry width="210" height="28" as="geometry">
            <mxRectangle width="210" height="28" as="alternateBounds" />
          </mxGeometry>
        </mxCell>
        <mxCell id="Fn4uZTVtMZI9myQDbYoV-66" style="shape=tableRow;horizontal=0;startSize=0;swimlaneHead=0;swimlaneBody=0;strokeColor=inherit;top=0;left=0;bottom=0;right=0;collapsible=0;dropTarget=0;fillColor=none;points=[[0,0.5],[1,0.5]];portConstraint=eastwest;fontSize=16;" parent="Fn4uZTVtMZI9myQDbYoV-48" vertex="1">
          <mxGeometry y="57" width="210" height="29" as="geometry" />
        </mxCell>
        <mxCell id="Fn4uZTVtMZI9myQDbYoV-67" value="artist_first_name" style="shape=partialRectangle;html=1;whiteSpace=wrap;connectable=0;strokeColor=inherit;overflow=hidden;fillColor=none;top=0;left=0;bottom=0;right=0;pointerEvents=1;fontSize=16;align=left;" parent="Fn4uZTVtMZI9myQDbYoV-66" vertex="1">
          <mxGeometry width="210" height="29" as="geometry">
            <mxRectangle width="210" height="29" as="alternateBounds" />
          </mxGeometry>
        </mxCell>
        <mxCell id="Fn4uZTVtMZI9myQDbYoV-64" style="shape=tableRow;horizontal=0;startSize=0;swimlaneHead=0;swimlaneBody=0;strokeColor=inherit;top=0;left=0;bottom=0;right=0;collapsible=0;dropTarget=0;fillColor=none;points=[[0,0.5],[1,0.5]];portConstraint=eastwest;fontSize=16;" parent="Fn4uZTVtMZI9myQDbYoV-48" vertex="1">
          <mxGeometry y="86" width="210" height="28" as="geometry" />
        </mxCell>
        <mxCell id="Fn4uZTVtMZI9myQDbYoV-65" value="artist_last_name" style="shape=partialRectangle;html=1;whiteSpace=wrap;connectable=0;strokeColor=inherit;overflow=hidden;fillColor=none;top=0;left=0;bottom=0;right=0;pointerEvents=1;fontSize=16;align=left;" parent="Fn4uZTVtMZI9myQDbYoV-64" vertex="1">
          <mxGeometry width="210" height="28" as="geometry">
            <mxRectangle width="210" height="28" as="alternateBounds" />
          </mxGeometry>
        </mxCell>
        <mxCell id="Fn4uZTVtMZI9myQDbYoV-49" value="" style="shape=tableRow;horizontal=0;startSize=0;swimlaneHead=0;swimlaneBody=0;strokeColor=inherit;top=0;left=0;bottom=0;right=0;collapsible=0;dropTarget=0;fillColor=none;points=[[0,0.5],[1,0.5]];portConstraint=eastwest;fontSize=16;" parent="Fn4uZTVtMZI9myQDbYoV-48" vertex="1">
          <mxGeometry y="114" width="210" height="29" as="geometry" />
        </mxCell>
        <mxCell id="Fn4uZTVtMZI9myQDbYoV-50" value="artist_dob" style="shape=partialRectangle;html=1;whiteSpace=wrap;connectable=0;strokeColor=inherit;overflow=hidden;fillColor=none;top=0;left=0;bottom=0;right=0;pointerEvents=1;fontSize=16;align=left;" parent="Fn4uZTVtMZI9myQDbYoV-49" vertex="1">
          <mxGeometry width="210" height="29" as="geometry">
            <mxRectangle width="210" height="29" as="alternateBounds" />
          </mxGeometry>
        </mxCell>
        <mxCell id="Fn4uZTVtMZI9myQDbYoV-53" value="" style="shape=tableRow;horizontal=0;startSize=0;swimlaneHead=0;swimlaneBody=0;strokeColor=inherit;top=0;left=0;bottom=0;right=0;collapsible=0;dropTarget=0;fillColor=none;points=[[0,0.5],[1,0.5]];portConstraint=eastwest;fontSize=16;" parent="Fn4uZTVtMZI9myQDbYoV-48" vertex="1">
          <mxGeometry y="143" width="210" height="28" as="geometry" />
        </mxCell>
        <mxCell id="Fn4uZTVtMZI9myQDbYoV-54" value="number_of_albums" style="shape=partialRectangle;html=1;whiteSpace=wrap;connectable=0;strokeColor=inherit;overflow=hidden;fillColor=none;top=0;left=0;bottom=0;right=0;pointerEvents=1;fontSize=16;align=left;" parent="Fn4uZTVtMZI9myQDbYoV-53" vertex="1">
          <mxGeometry width="210" height="28" as="geometry">
            <mxRectangle width="210" height="28" as="alternateBounds" />
          </mxGeometry>
        </mxCell>
        <mxCell id="Fn4uZTVtMZI9myQDbYoV-57" value="" style="shape=tableRow;horizontal=0;startSize=0;swimlaneHead=0;swimlaneBody=0;strokeColor=inherit;top=0;left=0;bottom=0;right=0;collapsible=0;dropTarget=0;fillColor=none;points=[[0,0.5],[1,0.5]];portConstraint=eastwest;fontSize=16;" parent="Fn4uZTVtMZI9myQDbYoV-48" vertex="1">
          <mxGeometry y="171" width="210" height="29" as="geometry" />
        </mxCell>
        <mxCell id="Fn4uZTVtMZI9myQDbYoV-58" value="number_of_grammys_won" style="shape=partialRectangle;html=1;whiteSpace=wrap;connectable=0;strokeColor=inherit;overflow=hidden;fillColor=none;top=0;left=0;bottom=0;right=0;pointerEvents=1;fontSize=16;align=left;" parent="Fn4uZTVtMZI9myQDbYoV-57" vertex="1">
          <mxGeometry width="210" height="29" as="geometry">
            <mxRectangle width="210" height="29" as="alternateBounds" />
          </mxGeometry>
        </mxCell>
        <mxCell id="Fn4uZTVtMZI9myQDbYoV-73" style="shape=tableRow;horizontal=0;startSize=0;swimlaneHead=0;swimlaneBody=0;strokeColor=inherit;top=0;left=0;bottom=0;right=0;collapsible=0;dropTarget=0;fillColor=none;points=[[0,0.5],[1,0.5]];portConstraint=eastwest;fontSize=16;" parent="Fn4uZTVtMZI9myQDbYoV-48" vertex="1">
          <mxGeometry y="200" width="210" height="29" as="geometry" />
        </mxCell>
        <mxCell id="Fn4uZTVtMZI9myQDbYoV-74" value="monthly_spotify_listeners_M" style="shape=partialRectangle;html=1;whiteSpace=wrap;connectable=0;strokeColor=inherit;overflow=hidden;fillColor=none;top=0;left=0;bottom=0;right=0;pointerEvents=1;fontSize=16;align=left;" parent="Fn4uZTVtMZI9myQDbYoV-73" vertex="1">
          <mxGeometry width="210" height="29" as="geometry">
            <mxRectangle width="210" height="29" as="alternateBounds" />
          </mxGeometry>
        </mxCell>
        <mxCell id="Fn4uZTVtMZI9myQDbYoV-76" value="" style="shape=table;startSize=0;container=1;collapsible=0;childLayout=tableLayout;fontSize=16;fontStyle=1;align=left;" parent="WIyWlLk6GJQsqaUBKTNV-1" vertex="1">
          <mxGeometry x="390" y="20" width="210" height="90" as="geometry" />
        </mxCell>
        <mxCell id="Fn4uZTVtMZI9myQDbYoV-77" style="shape=tableRow;horizontal=0;startSize=0;swimlaneHead=0;swimlaneBody=0;strokeColor=inherit;top=0;left=0;bottom=0;right=0;collapsible=0;dropTarget=0;fillColor=none;points=[[0,0.5],[1,0.5]];portConstraint=eastwest;fontSize=16;" parent="Fn4uZTVtMZI9myQDbYoV-76" vertex="1">
          <mxGeometry width="210" height="29" as="geometry" />
        </mxCell>
        <mxCell id="Fn4uZTVtMZI9myQDbYoV-78" value="headliner" style="shape=partialRectangle;html=1;whiteSpace=wrap;connectable=0;strokeColor=inherit;overflow=hidden;fillColor=none;top=0;left=0;bottom=0;right=0;pointerEvents=1;fontSize=16;fontStyle=1" parent="Fn4uZTVtMZI9myQDbYoV-77" vertex="1">
          <mxGeometry width="210" height="29" as="geometry">
            <mxRectangle width="210" height="29" as="alternateBounds" />
          </mxGeometry>
        </mxCell>
        <mxCell id="Fn4uZTVtMZI9myQDbYoV-79" style="shape=tableRow;horizontal=0;startSize=0;swimlaneHead=0;swimlaneBody=0;strokeColor=inherit;top=0;left=0;bottom=0;right=0;collapsible=0;dropTarget=0;fillColor=none;points=[[0,0.5],[1,0.5]];portConstraint=eastwest;fontSize=16;" parent="Fn4uZTVtMZI9myQDbYoV-76" vertex="1">
          <mxGeometry y="29" width="210" height="28" as="geometry" />
        </mxCell>
        <mxCell id="Fn4uZTVtMZI9myQDbYoV-80" value="&lt;u&gt;headliner_id&lt;/u&gt;" style="shape=partialRectangle;html=1;whiteSpace=wrap;connectable=0;strokeColor=inherit;overflow=hidden;fillColor=none;top=0;left=0;bottom=0;right=0;pointerEvents=1;fontSize=16;align=left;" parent="Fn4uZTVtMZI9myQDbYoV-79" vertex="1">
          <mxGeometry width="210" height="28" as="geometry">
            <mxRectangle width="210" height="28" as="alternateBounds" />
          </mxGeometry>
        </mxCell>
        <mxCell id="Fn4uZTVtMZI9myQDbYoV-81" style="shape=tableRow;horizontal=0;startSize=0;swimlaneHead=0;swimlaneBody=0;strokeColor=inherit;top=0;left=0;bottom=0;right=0;collapsible=0;dropTarget=0;fillColor=none;points=[[0,0.5],[1,0.5]];portConstraint=eastwest;fontSize=16;" parent="Fn4uZTVtMZI9myQDbYoV-76" vertex="1">
          <mxGeometry y="57" width="210" height="33" as="geometry" />
        </mxCell>
        <mxCell id="Fn4uZTVtMZI9myQDbYoV-82" value="artist_id" style="shape=partialRectangle;html=1;whiteSpace=wrap;connectable=0;strokeColor=inherit;overflow=hidden;fillColor=none;top=0;left=0;bottom=0;right=0;pointerEvents=1;fontSize=16;align=left;" parent="Fn4uZTVtMZI9myQDbYoV-81" vertex="1">
          <mxGeometry width="210" height="33" as="geometry">
            <mxRectangle width="210" height="33" as="alternateBounds" />
          </mxGeometry>
        </mxCell>
        <mxCell id="Fn4uZTVtMZI9myQDbYoV-100" value="" style="shape=table;startSize=0;container=1;collapsible=0;childLayout=tableLayout;fontSize=16;fontStyle=1;align=left;" parent="WIyWlLk6GJQsqaUBKTNV-1" vertex="1">
          <mxGeometry x="780" y="120" width="210" height="139" as="geometry" />
        </mxCell>
        <mxCell id="Fn4uZTVtMZI9myQDbYoV-101" style="shape=tableRow;horizontal=0;startSize=0;swimlaneHead=0;swimlaneBody=0;strokeColor=inherit;top=0;left=0;bottom=0;right=0;collapsible=0;dropTarget=0;fillColor=none;points=[[0,0.5],[1,0.5]];portConstraint=eastwest;fontSize=16;" parent="Fn4uZTVtMZI9myQDbYoV-100" vertex="1">
          <mxGeometry width="210" height="29" as="geometry" />
        </mxCell>
        <mxCell id="Fn4uZTVtMZI9myQDbYoV-102" value="tour" style="shape=partialRectangle;html=1;whiteSpace=wrap;connectable=0;strokeColor=inherit;overflow=hidden;fillColor=none;top=0;left=0;bottom=0;right=0;pointerEvents=1;fontSize=16;fontStyle=1" parent="Fn4uZTVtMZI9myQDbYoV-101" vertex="1">
          <mxGeometry width="210" height="29" as="geometry">
            <mxRectangle width="210" height="29" as="alternateBounds" />
          </mxGeometry>
        </mxCell>
        <mxCell id="Fn4uZTVtMZI9myQDbYoV-103" style="shape=tableRow;horizontal=0;startSize=0;swimlaneHead=0;swimlaneBody=0;strokeColor=inherit;top=0;left=0;bottom=0;right=0;collapsible=0;dropTarget=0;fillColor=none;points=[[0,0.5],[1,0.5]];portConstraint=eastwest;fontSize=16;" parent="Fn4uZTVtMZI9myQDbYoV-100" vertex="1">
          <mxGeometry y="29" width="210" height="28" as="geometry" />
        </mxCell>
        <mxCell id="Fn4uZTVtMZI9myQDbYoV-104" value="&lt;u&gt;tour_id&lt;/u&gt;" style="shape=partialRectangle;html=1;whiteSpace=wrap;connectable=0;strokeColor=inherit;overflow=hidden;fillColor=none;top=0;left=0;bottom=0;right=0;pointerEvents=1;fontSize=16;align=left;" parent="Fn4uZTVtMZI9myQDbYoV-103" vertex="1">
          <mxGeometry width="210" height="28" as="geometry">
            <mxRectangle width="210" height="28" as="alternateBounds" />
          </mxGeometry>
        </mxCell>
        <mxCell id="Fn4uZTVtMZI9myQDbYoV-105" style="shape=tableRow;horizontal=0;startSize=0;swimlaneHead=0;swimlaneBody=0;strokeColor=inherit;top=0;left=0;bottom=0;right=0;collapsible=0;dropTarget=0;fillColor=none;points=[[0,0.5],[1,0.5]];portConstraint=eastwest;fontSize=16;" parent="Fn4uZTVtMZI9myQDbYoV-100" vertex="1">
          <mxGeometry y="57" width="210" height="29" as="geometry" />
        </mxCell>
        <mxCell id="Fn4uZTVtMZI9myQDbYoV-106" value="tour_name" style="shape=partialRectangle;html=1;whiteSpace=wrap;connectable=0;strokeColor=inherit;overflow=hidden;fillColor=none;top=0;left=0;bottom=0;right=0;pointerEvents=1;fontSize=16;align=left;" parent="Fn4uZTVtMZI9myQDbYoV-105" vertex="1">
          <mxGeometry width="210" height="29" as="geometry">
            <mxRectangle width="210" height="29" as="alternateBounds" />
          </mxGeometry>
        </mxCell>
        <mxCell id="Fn4uZTVtMZI9myQDbYoV-107" style="shape=tableRow;horizontal=0;startSize=0;swimlaneHead=0;swimlaneBody=0;strokeColor=inherit;top=0;left=0;bottom=0;right=0;collapsible=0;dropTarget=0;fillColor=none;points=[[0,0.5],[1,0.5]];portConstraint=eastwest;fontSize=16;" parent="Fn4uZTVtMZI9myQDbYoV-100" vertex="1">
          <mxGeometry y="86" width="210" height="24" as="geometry" />
        </mxCell>
        <mxCell id="Fn4uZTVtMZI9myQDbYoV-108" value="headliner_id" style="shape=partialRectangle;html=1;whiteSpace=wrap;connectable=0;strokeColor=inherit;overflow=hidden;fillColor=none;top=0;left=0;bottom=0;right=0;pointerEvents=1;fontSize=16;align=left;" parent="Fn4uZTVtMZI9myQDbYoV-107" vertex="1">
          <mxGeometry width="210" height="24" as="geometry">
            <mxRectangle width="210" height="24" as="alternateBounds" />
          </mxGeometry>
        </mxCell>
        <mxCell id="Fn4uZTVtMZI9myQDbYoV-109" value="" style="shape=tableRow;horizontal=0;startSize=0;swimlaneHead=0;swimlaneBody=0;strokeColor=inherit;top=0;left=0;bottom=0;right=0;collapsible=0;dropTarget=0;fillColor=none;points=[[0,0.5],[1,0.5]];portConstraint=eastwest;fontSize=16;" parent="Fn4uZTVtMZI9myQDbYoV-100" vertex="1">
          <mxGeometry y="110" width="210" height="29" as="geometry" />
        </mxCell>
        <mxCell id="Fn4uZTVtMZI9myQDbYoV-110" value="opener_id" style="shape=partialRectangle;html=1;whiteSpace=wrap;connectable=0;strokeColor=inherit;overflow=hidden;fillColor=none;top=0;left=0;bottom=0;right=0;pointerEvents=1;fontSize=16;align=left;" parent="Fn4uZTVtMZI9myQDbYoV-109" vertex="1">
          <mxGeometry width="210" height="29" as="geometry">
            <mxRectangle width="210" height="29" as="alternateBounds" />
          </mxGeometry>
        </mxCell>
        <mxCell id="Fn4uZTVtMZI9myQDbYoV-124" value="" style="shape=table;startSize=0;container=1;collapsible=0;childLayout=tableLayout;fontSize=16;fontStyle=1;align=left;" parent="WIyWlLk6GJQsqaUBKTNV-1" vertex="1">
          <mxGeometry x="-270" y="50" width="210" height="90" as="geometry" />
        </mxCell>
        <mxCell id="Fn4uZTVtMZI9myQDbYoV-125" style="shape=tableRow;horizontal=0;startSize=0;swimlaneHead=0;swimlaneBody=0;strokeColor=inherit;top=0;left=0;bottom=0;right=0;collapsible=0;dropTarget=0;fillColor=none;points=[[0,0.5],[1,0.5]];portConstraint=eastwest;fontSize=16;" parent="Fn4uZTVtMZI9myQDbYoV-124" vertex="1">
          <mxGeometry width="210" height="29" as="geometry" />
        </mxCell>
        <mxCell id="Fn4uZTVtMZI9myQDbYoV-126" value="artist_genre" style="shape=partialRectangle;html=1;whiteSpace=wrap;connectable=0;strokeColor=inherit;overflow=hidden;fillColor=none;top=0;left=0;bottom=0;right=0;pointerEvents=1;fontSize=16;fontStyle=1" parent="Fn4uZTVtMZI9myQDbYoV-125" vertex="1">
          <mxGeometry width="210" height="29" as="geometry">
            <mxRectangle width="210" height="29" as="alternateBounds" />
          </mxGeometry>
        </mxCell>
        <mxCell id="Fn4uZTVtMZI9myQDbYoV-127" style="shape=tableRow;horizontal=0;startSize=0;swimlaneHead=0;swimlaneBody=0;strokeColor=inherit;top=0;left=0;bottom=0;right=0;collapsible=0;dropTarget=0;fillColor=none;points=[[0,0.5],[1,0.5]];portConstraint=eastwest;fontSize=16;" parent="Fn4uZTVtMZI9myQDbYoV-124" vertex="1">
          <mxGeometry y="29" width="210" height="28" as="geometry" />
        </mxCell>
        <mxCell id="Fn4uZTVtMZI9myQDbYoV-128" value="&lt;u&gt;genre_id&lt;span style=&quot;white-space: pre;&quot;&gt;&#x9;&lt;/span&gt;&lt;/u&gt;" style="shape=partialRectangle;html=1;whiteSpace=wrap;connectable=0;strokeColor=inherit;overflow=hidden;fillColor=none;top=0;left=0;bottom=0;right=0;pointerEvents=1;fontSize=16;align=left;" parent="Fn4uZTVtMZI9myQDbYoV-127" vertex="1">
          <mxGeometry width="210" height="28" as="geometry">
            <mxRectangle width="210" height="28" as="alternateBounds" />
          </mxGeometry>
        </mxCell>
        <mxCell id="Fn4uZTVtMZI9myQDbYoV-129" style="shape=tableRow;horizontal=0;startSize=0;swimlaneHead=0;swimlaneBody=0;strokeColor=inherit;top=0;left=0;bottom=0;right=0;collapsible=0;dropTarget=0;fillColor=none;points=[[0,0.5],[1,0.5]];portConstraint=eastwest;fontSize=16;" parent="Fn4uZTVtMZI9myQDbYoV-124" vertex="1">
          <mxGeometry y="57" width="210" height="33" as="geometry" />
        </mxCell>
        <mxCell id="Fn4uZTVtMZI9myQDbYoV-130" value="&lt;u&gt;artist_id&lt;/u&gt;" style="shape=partialRectangle;html=1;whiteSpace=wrap;connectable=0;strokeColor=inherit;overflow=hidden;fillColor=none;top=0;left=0;bottom=0;right=0;pointerEvents=1;fontSize=16;align=left;" parent="Fn4uZTVtMZI9myQDbYoV-129" vertex="1">
          <mxGeometry width="210" height="33" as="geometry">
            <mxRectangle width="210" height="33" as="alternateBounds" />
          </mxGeometry>
        </mxCell>
        <mxCell id="Fn4uZTVtMZI9myQDbYoV-131" value="" style="shape=table;startSize=0;container=1;collapsible=0;childLayout=tableLayout;fontSize=16;fontStyle=1;align=left;" parent="WIyWlLk6GJQsqaUBKTNV-1" vertex="1">
          <mxGeometry x="-270" y="240" width="210" height="139" as="geometry" />
        </mxCell>
        <mxCell id="Fn4uZTVtMZI9myQDbYoV-132" style="shape=tableRow;horizontal=0;startSize=0;swimlaneHead=0;swimlaneBody=0;strokeColor=inherit;top=0;left=0;bottom=0;right=0;collapsible=0;dropTarget=0;fillColor=none;points=[[0,0.5],[1,0.5]];portConstraint=eastwest;fontSize=16;" parent="Fn4uZTVtMZI9myQDbYoV-131" vertex="1">
          <mxGeometry width="210" height="29" as="geometry" />
        </mxCell>
        <mxCell id="Fn4uZTVtMZI9myQDbYoV-133" value="album" style="shape=partialRectangle;html=1;whiteSpace=wrap;connectable=0;strokeColor=inherit;overflow=hidden;fillColor=none;top=0;left=0;bottom=0;right=0;pointerEvents=1;fontSize=16;fontStyle=1" parent="Fn4uZTVtMZI9myQDbYoV-132" vertex="1">
          <mxGeometry width="210" height="29" as="geometry">
            <mxRectangle width="210" height="29" as="alternateBounds" />
          </mxGeometry>
        </mxCell>
        <mxCell id="Fn4uZTVtMZI9myQDbYoV-134" style="shape=tableRow;horizontal=0;startSize=0;swimlaneHead=0;swimlaneBody=0;strokeColor=inherit;top=0;left=0;bottom=0;right=0;collapsible=0;dropTarget=0;fillColor=none;points=[[0,0.5],[1,0.5]];portConstraint=eastwest;fontSize=16;" parent="Fn4uZTVtMZI9myQDbYoV-131" vertex="1">
          <mxGeometry y="29" width="210" height="28" as="geometry" />
        </mxCell>
        <mxCell id="Fn4uZTVtMZI9myQDbYoV-135" value="&lt;u&gt;album_id&lt;/u&gt;" style="shape=partialRectangle;html=1;whiteSpace=wrap;connectable=0;strokeColor=inherit;overflow=hidden;fillColor=none;top=0;left=0;bottom=0;right=0;pointerEvents=1;fontSize=16;align=left;" parent="Fn4uZTVtMZI9myQDbYoV-134" vertex="1">
          <mxGeometry width="210" height="28" as="geometry">
            <mxRectangle width="210" height="28" as="alternateBounds" />
          </mxGeometry>
        </mxCell>
        <mxCell id="Fn4uZTVtMZI9myQDbYoV-136" style="shape=tableRow;horizontal=0;startSize=0;swimlaneHead=0;swimlaneBody=0;strokeColor=inherit;top=0;left=0;bottom=0;right=0;collapsible=0;dropTarget=0;fillColor=none;points=[[0,0.5],[1,0.5]];portConstraint=eastwest;fontSize=16;" parent="Fn4uZTVtMZI9myQDbYoV-131" vertex="1">
          <mxGeometry y="57" width="210" height="29" as="geometry" />
        </mxCell>
        <mxCell id="Fn4uZTVtMZI9myQDbYoV-137" value="artist_id" style="shape=partialRectangle;html=1;whiteSpace=wrap;connectable=0;strokeColor=inherit;overflow=hidden;fillColor=none;top=0;left=0;bottom=0;right=0;pointerEvents=1;fontSize=16;align=left;" parent="Fn4uZTVtMZI9myQDbYoV-136" vertex="1">
          <mxGeometry width="210" height="29" as="geometry">
            <mxRectangle width="210" height="29" as="alternateBounds" />
          </mxGeometry>
        </mxCell>
        <mxCell id="Fn4uZTVtMZI9myQDbYoV-138" style="shape=tableRow;horizontal=0;startSize=0;swimlaneHead=0;swimlaneBody=0;strokeColor=inherit;top=0;left=0;bottom=0;right=0;collapsible=0;dropTarget=0;fillColor=none;points=[[0,0.5],[1,0.5]];portConstraint=eastwest;fontSize=16;" parent="Fn4uZTVtMZI9myQDbYoV-131" vertex="1">
          <mxGeometry y="86" width="210" height="24" as="geometry" />
        </mxCell>
        <mxCell id="Fn4uZTVtMZI9myQDbYoV-139" value="album_name" style="shape=partialRectangle;html=1;whiteSpace=wrap;connectable=0;strokeColor=inherit;overflow=hidden;fillColor=none;top=0;left=0;bottom=0;right=0;pointerEvents=1;fontSize=16;align=left;" parent="Fn4uZTVtMZI9myQDbYoV-138" vertex="1">
          <mxGeometry width="210" height="24" as="geometry">
            <mxRectangle width="210" height="24" as="alternateBounds" />
          </mxGeometry>
        </mxCell>
        <mxCell id="Fn4uZTVtMZI9myQDbYoV-140" value="" style="shape=tableRow;horizontal=0;startSize=0;swimlaneHead=0;swimlaneBody=0;strokeColor=inherit;top=0;left=0;bottom=0;right=0;collapsible=0;dropTarget=0;fillColor=none;points=[[0,0.5],[1,0.5]];portConstraint=eastwest;fontSize=16;" parent="Fn4uZTVtMZI9myQDbYoV-131" vertex="1">
          <mxGeometry y="110" width="210" height="29" as="geometry" />
        </mxCell>
        <mxCell id="Fn4uZTVtMZI9myQDbYoV-141" value="album_release_date" style="shape=partialRectangle;html=1;whiteSpace=wrap;connectable=0;strokeColor=inherit;overflow=hidden;fillColor=none;top=0;left=0;bottom=0;right=0;pointerEvents=1;fontSize=16;align=left;" parent="Fn4uZTVtMZI9myQDbYoV-140" vertex="1">
          <mxGeometry width="210" height="29" as="geometry">
            <mxRectangle width="210" height="29" as="alternateBounds" />
          </mxGeometry>
        </mxCell>
        <mxCell id="Fn4uZTVtMZI9myQDbYoV-93" value="" style="shape=table;startSize=0;container=1;collapsible=0;childLayout=tableLayout;fontSize=16;fontStyle=1;align=left;" parent="WIyWlLk6GJQsqaUBKTNV-1" vertex="1">
          <mxGeometry x="390" y="200" width="210" height="90" as="geometry" />
        </mxCell>
        <mxCell id="Fn4uZTVtMZI9myQDbYoV-94" style="shape=tableRow;horizontal=0;startSize=0;swimlaneHead=0;swimlaneBody=0;strokeColor=inherit;top=0;left=0;bottom=0;right=0;collapsible=0;dropTarget=0;fillColor=none;points=[[0,0.5],[1,0.5]];portConstraint=eastwest;fontSize=16;" parent="Fn4uZTVtMZI9myQDbYoV-93" vertex="1">
          <mxGeometry width="210" height="29" as="geometry" />
        </mxCell>
        <mxCell id="Fn4uZTVtMZI9myQDbYoV-95" value="opener" style="shape=partialRectangle;html=1;whiteSpace=wrap;connectable=0;strokeColor=inherit;overflow=hidden;fillColor=none;top=0;left=0;bottom=0;right=0;pointerEvents=1;fontSize=16;fontStyle=1" parent="Fn4uZTVtMZI9myQDbYoV-94" vertex="1">
          <mxGeometry width="210" height="29" as="geometry">
            <mxRectangle width="210" height="29" as="alternateBounds" />
          </mxGeometry>
        </mxCell>
        <mxCell id="Fn4uZTVtMZI9myQDbYoV-96" style="shape=tableRow;horizontal=0;startSize=0;swimlaneHead=0;swimlaneBody=0;strokeColor=inherit;top=0;left=0;bottom=0;right=0;collapsible=0;dropTarget=0;fillColor=none;points=[[0,0.5],[1,0.5]];portConstraint=eastwest;fontSize=16;" parent="Fn4uZTVtMZI9myQDbYoV-93" vertex="1">
          <mxGeometry y="29" width="210" height="28" as="geometry" />
        </mxCell>
        <mxCell id="Fn4uZTVtMZI9myQDbYoV-97" value="&lt;u&gt;opener_id&lt;/u&gt;" style="shape=partialRectangle;html=1;whiteSpace=wrap;connectable=0;strokeColor=inherit;overflow=hidden;fillColor=none;top=0;left=0;bottom=0;right=0;pointerEvents=1;fontSize=16;align=left;" parent="Fn4uZTVtMZI9myQDbYoV-96" vertex="1">
          <mxGeometry width="210" height="28" as="geometry">
            <mxRectangle width="210" height="28" as="alternateBounds" />
          </mxGeometry>
        </mxCell>
        <mxCell id="Fn4uZTVtMZI9myQDbYoV-98" style="shape=tableRow;horizontal=0;startSize=0;swimlaneHead=0;swimlaneBody=0;strokeColor=inherit;top=0;left=0;bottom=0;right=0;collapsible=0;dropTarget=0;fillColor=none;points=[[0,0.5],[1,0.5]];portConstraint=eastwest;fontSize=16;" parent="Fn4uZTVtMZI9myQDbYoV-93" vertex="1">
          <mxGeometry y="57" width="210" height="33" as="geometry" />
        </mxCell>
        <mxCell id="Fn4uZTVtMZI9myQDbYoV-99" value="artist_id" style="shape=partialRectangle;html=1;whiteSpace=wrap;connectable=0;strokeColor=inherit;overflow=hidden;fillColor=none;top=0;left=0;bottom=0;right=0;pointerEvents=1;fontSize=16;align=left;" parent="Fn4uZTVtMZI9myQDbYoV-98" vertex="1">
          <mxGeometry width="210" height="33" as="geometry">
            <mxRectangle width="210" height="33" as="alternateBounds" />
          </mxGeometry>
        </mxCell>
        <mxCell id="Fn4uZTVtMZI9myQDbYoV-193" style="edgeStyle=orthogonalEdgeStyle;rounded=0;orthogonalLoop=1;jettySize=auto;html=1;exitX=1;exitY=0.5;exitDx=0;exitDy=0;entryX=0;entryY=0.5;entryDx=0;entryDy=0;endArrow=none;endFill=0;" parent="WIyWlLk6GJQsqaUBKTNV-1" source="Fn4uZTVtMZI9myQDbYoV-68" target="Fn4uZTVtMZI9myQDbYoV-81" edge="1">
          <mxGeometry relative="1" as="geometry" />
        </mxCell>
        <mxCell id="Fn4uZTVtMZI9myQDbYoV-194" style="edgeStyle=orthogonalEdgeStyle;rounded=0;orthogonalLoop=1;jettySize=auto;html=1;exitX=1;exitY=0.5;exitDx=0;exitDy=0;endArrow=none;endFill=0;" parent="WIyWlLk6GJQsqaUBKTNV-1" source="Fn4uZTVtMZI9myQDbYoV-68" target="Fn4uZTVtMZI9myQDbYoV-98" edge="1">
          <mxGeometry relative="1" as="geometry" />
        </mxCell>
        <mxCell id="Fn4uZTVtMZI9myQDbYoV-117" value="" style="shape=table;startSize=0;container=1;collapsible=0;childLayout=tableLayout;fontSize=16;fontStyle=1;align=left;" parent="WIyWlLk6GJQsqaUBKTNV-1" vertex="1">
          <mxGeometry x="-590" y="50" width="210" height="90" as="geometry" />
        </mxCell>
        <mxCell id="Fn4uZTVtMZI9myQDbYoV-118" style="shape=tableRow;horizontal=0;startSize=0;swimlaneHead=0;swimlaneBody=0;strokeColor=inherit;top=0;left=0;bottom=0;right=0;collapsible=0;dropTarget=0;fillColor=none;points=[[0,0.5],[1,0.5]];portConstraint=eastwest;fontSize=16;" parent="Fn4uZTVtMZI9myQDbYoV-117" vertex="1">
          <mxGeometry width="210" height="29" as="geometry" />
        </mxCell>
        <mxCell id="Fn4uZTVtMZI9myQDbYoV-119" value="genre_id" style="shape=partialRectangle;html=1;whiteSpace=wrap;connectable=0;strokeColor=inherit;overflow=hidden;fillColor=none;top=0;left=0;bottom=0;right=0;pointerEvents=1;fontSize=16;fontStyle=1" parent="Fn4uZTVtMZI9myQDbYoV-118" vertex="1">
          <mxGeometry width="210" height="29" as="geometry">
            <mxRectangle width="210" height="29" as="alternateBounds" />
          </mxGeometry>
        </mxCell>
        <mxCell id="Fn4uZTVtMZI9myQDbYoV-120" style="shape=tableRow;horizontal=0;startSize=0;swimlaneHead=0;swimlaneBody=0;strokeColor=inherit;top=0;left=0;bottom=0;right=0;collapsible=0;dropTarget=0;fillColor=none;points=[[0,0.5],[1,0.5]];portConstraint=eastwest;fontSize=16;" parent="Fn4uZTVtMZI9myQDbYoV-117" vertex="1">
          <mxGeometry y="29" width="210" height="28" as="geometry" />
        </mxCell>
        <mxCell id="Fn4uZTVtMZI9myQDbYoV-121" value="&lt;u&gt;genre_id&lt;span style=&quot;white-space: pre;&quot;&gt;&#x9;&lt;/span&gt;&lt;/u&gt;" style="shape=partialRectangle;html=1;whiteSpace=wrap;connectable=0;strokeColor=inherit;overflow=hidden;fillColor=none;top=0;left=0;bottom=0;right=0;pointerEvents=1;fontSize=16;align=left;" parent="Fn4uZTVtMZI9myQDbYoV-120" vertex="1">
          <mxGeometry width="210" height="28" as="geometry">
            <mxRectangle width="210" height="28" as="alternateBounds" />
          </mxGeometry>
        </mxCell>
        <mxCell id="Fn4uZTVtMZI9myQDbYoV-122" style="shape=tableRow;horizontal=0;startSize=0;swimlaneHead=0;swimlaneBody=0;strokeColor=inherit;top=0;left=0;bottom=0;right=0;collapsible=0;dropTarget=0;fillColor=none;points=[[0,0.5],[1,0.5]];portConstraint=eastwest;fontSize=16;" parent="Fn4uZTVtMZI9myQDbYoV-117" vertex="1">
          <mxGeometry y="57" width="210" height="33" as="geometry" />
        </mxCell>
        <mxCell id="Fn4uZTVtMZI9myQDbYoV-123" value="genre_name" style="shape=partialRectangle;html=1;whiteSpace=wrap;connectable=0;strokeColor=inherit;overflow=hidden;fillColor=none;top=0;left=0;bottom=0;right=0;pointerEvents=1;fontSize=16;align=left;" parent="Fn4uZTVtMZI9myQDbYoV-122" vertex="1">
          <mxGeometry width="210" height="33" as="geometry">
            <mxRectangle width="210" height="33" as="alternateBounds" />
          </mxGeometry>
        </mxCell>
        <mxCell id="Fn4uZTVtMZI9myQDbYoV-195" style="edgeStyle=orthogonalEdgeStyle;rounded=0;orthogonalLoop=1;jettySize=auto;html=1;exitX=1;exitY=0.5;exitDx=0;exitDy=0;entryX=0;entryY=0.5;entryDx=0;entryDy=0;endArrow=none;endFill=0;" parent="WIyWlLk6GJQsqaUBKTNV-1" source="Fn4uZTVtMZI9myQDbYoV-120" target="Fn4uZTVtMZI9myQDbYoV-127" edge="1">
          <mxGeometry relative="1" as="geometry" />
        </mxCell>
        <mxCell id="Fn4uZTVtMZI9myQDbYoV-196" style="edgeStyle=orthogonalEdgeStyle;rounded=0;orthogonalLoop=1;jettySize=auto;html=1;exitX=1;exitY=0.5;exitDx=0;exitDy=0;entryX=0;entryY=0.5;entryDx=0;entryDy=0;endArrow=none;endFill=0;" parent="WIyWlLk6GJQsqaUBKTNV-1" source="Fn4uZTVtMZI9myQDbYoV-129" target="Fn4uZTVtMZI9myQDbYoV-68" edge="1">
          <mxGeometry relative="1" as="geometry" />
        </mxCell>
        <mxCell id="Fn4uZTVtMZI9myQDbYoV-142" value="" style="shape=table;startSize=0;container=1;collapsible=0;childLayout=tableLayout;fontSize=16;fontStyle=1;align=left;" parent="WIyWlLk6GJQsqaUBKTNV-1" vertex="1">
          <mxGeometry x="-590" y="240" width="210" height="167" as="geometry" />
        </mxCell>
        <mxCell id="Fn4uZTVtMZI9myQDbYoV-143" style="shape=tableRow;horizontal=0;startSize=0;swimlaneHead=0;swimlaneBody=0;strokeColor=inherit;top=0;left=0;bottom=0;right=0;collapsible=0;dropTarget=0;fillColor=none;points=[[0,0.5],[1,0.5]];portConstraint=eastwest;fontSize=16;" parent="Fn4uZTVtMZI9myQDbYoV-142" vertex="1">
          <mxGeometry width="210" height="29" as="geometry" />
        </mxCell>
        <mxCell id="Fn4uZTVtMZI9myQDbYoV-144" value="single" style="shape=partialRectangle;html=1;whiteSpace=wrap;connectable=0;strokeColor=inherit;overflow=hidden;fillColor=none;top=0;left=0;bottom=0;right=0;pointerEvents=1;fontSize=16;fontStyle=1" parent="Fn4uZTVtMZI9myQDbYoV-143" vertex="1">
          <mxGeometry width="210" height="29" as="geometry">
            <mxRectangle width="210" height="29" as="alternateBounds" />
          </mxGeometry>
        </mxCell>
        <mxCell id="Fn4uZTVtMZI9myQDbYoV-145" style="shape=tableRow;horizontal=0;startSize=0;swimlaneHead=0;swimlaneBody=0;strokeColor=inherit;top=0;left=0;bottom=0;right=0;collapsible=0;dropTarget=0;fillColor=none;points=[[0,0.5],[1,0.5]];portConstraint=eastwest;fontSize=16;" parent="Fn4uZTVtMZI9myQDbYoV-142" vertex="1">
          <mxGeometry y="29" width="210" height="28" as="geometry" />
        </mxCell>
        <mxCell id="Fn4uZTVtMZI9myQDbYoV-146" value="&lt;u&gt;single_id&lt;/u&gt;" style="shape=partialRectangle;html=1;whiteSpace=wrap;connectable=0;strokeColor=inherit;overflow=hidden;fillColor=none;top=0;left=0;bottom=0;right=0;pointerEvents=1;fontSize=16;align=left;" parent="Fn4uZTVtMZI9myQDbYoV-145" vertex="1">
          <mxGeometry width="210" height="28" as="geometry">
            <mxRectangle width="210" height="28" as="alternateBounds" />
          </mxGeometry>
        </mxCell>
        <mxCell id="Fn4uZTVtMZI9myQDbYoV-153" style="shape=tableRow;horizontal=0;startSize=0;swimlaneHead=0;swimlaneBody=0;strokeColor=inherit;top=0;left=0;bottom=0;right=0;collapsible=0;dropTarget=0;fillColor=none;points=[[0,0.5],[1,0.5]];portConstraint=eastwest;fontSize=16;" parent="Fn4uZTVtMZI9myQDbYoV-142" vertex="1">
          <mxGeometry y="57" width="210" height="28" as="geometry" />
        </mxCell>
        <mxCell id="Fn4uZTVtMZI9myQDbYoV-154" value="album_id" style="shape=partialRectangle;html=1;whiteSpace=wrap;connectable=0;strokeColor=inherit;overflow=hidden;fillColor=none;top=0;left=0;bottom=0;right=0;pointerEvents=1;fontSize=16;align=left;" parent="Fn4uZTVtMZI9myQDbYoV-153" vertex="1">
          <mxGeometry width="210" height="28" as="geometry">
            <mxRectangle width="210" height="28" as="alternateBounds" />
          </mxGeometry>
        </mxCell>
        <mxCell id="Fn4uZTVtMZI9myQDbYoV-147" style="shape=tableRow;horizontal=0;startSize=0;swimlaneHead=0;swimlaneBody=0;strokeColor=inherit;top=0;left=0;bottom=0;right=0;collapsible=0;dropTarget=0;fillColor=none;points=[[0,0.5],[1,0.5]];portConstraint=eastwest;fontSize=16;" parent="Fn4uZTVtMZI9myQDbYoV-142" vertex="1">
          <mxGeometry y="85" width="210" height="29" as="geometry" />
        </mxCell>
        <mxCell id="Fn4uZTVtMZI9myQDbYoV-148" value="song_name" style="shape=partialRectangle;html=1;whiteSpace=wrap;connectable=0;strokeColor=inherit;overflow=hidden;fillColor=none;top=0;left=0;bottom=0;right=0;pointerEvents=1;fontSize=16;align=left;" parent="Fn4uZTVtMZI9myQDbYoV-147" vertex="1">
          <mxGeometry width="210" height="29" as="geometry">
            <mxRectangle width="210" height="29" as="alternateBounds" />
          </mxGeometry>
        </mxCell>
        <mxCell id="Fn4uZTVtMZI9myQDbYoV-149" style="shape=tableRow;horizontal=0;startSize=0;swimlaneHead=0;swimlaneBody=0;strokeColor=inherit;top=0;left=0;bottom=0;right=0;collapsible=0;dropTarget=0;fillColor=none;points=[[0,0.5],[1,0.5]];portConstraint=eastwest;fontSize=16;" parent="Fn4uZTVtMZI9myQDbYoV-142" vertex="1">
          <mxGeometry y="114" width="210" height="24" as="geometry" />
        </mxCell>
        <mxCell id="Fn4uZTVtMZI9myQDbYoV-150" value="single_release_date" style="shape=partialRectangle;html=1;whiteSpace=wrap;connectable=0;strokeColor=inherit;overflow=hidden;fillColor=none;top=0;left=0;bottom=0;right=0;pointerEvents=1;fontSize=16;align=left;" parent="Fn4uZTVtMZI9myQDbYoV-149" vertex="1">
          <mxGeometry width="210" height="24" as="geometry">
            <mxRectangle width="210" height="24" as="alternateBounds" />
          </mxGeometry>
        </mxCell>
        <mxCell id="Fn4uZTVtMZI9myQDbYoV-151" value="" style="shape=tableRow;horizontal=0;startSize=0;swimlaneHead=0;swimlaneBody=0;strokeColor=inherit;top=0;left=0;bottom=0;right=0;collapsible=0;dropTarget=0;fillColor=none;points=[[0,0.5],[1,0.5]];portConstraint=eastwest;fontSize=16;" parent="Fn4uZTVtMZI9myQDbYoV-142" vertex="1">
          <mxGeometry y="138" width="210" height="29" as="geometry" />
        </mxCell>
        <mxCell id="Fn4uZTVtMZI9myQDbYoV-152" value="highest_US_ranking" style="shape=partialRectangle;html=1;whiteSpace=wrap;connectable=0;strokeColor=inherit;overflow=hidden;fillColor=none;top=0;left=0;bottom=0;right=0;pointerEvents=1;fontSize=16;align=left;" parent="Fn4uZTVtMZI9myQDbYoV-151" vertex="1">
          <mxGeometry width="210" height="29" as="geometry">
            <mxRectangle width="210" height="29" as="alternateBounds" />
          </mxGeometry>
        </mxCell>
        <mxCell id="Fn4uZTVtMZI9myQDbYoV-197" style="edgeStyle=orthogonalEdgeStyle;rounded=0;orthogonalLoop=1;jettySize=auto;html=1;exitX=1;exitY=0.5;exitDx=0;exitDy=0;entryX=0;entryY=0.5;entryDx=0;entryDy=0;endArrow=none;endFill=0;" parent="WIyWlLk6GJQsqaUBKTNV-1" source="Fn4uZTVtMZI9myQDbYoV-153" target="Fn4uZTVtMZI9myQDbYoV-134" edge="1">
          <mxGeometry relative="1" as="geometry" />
        </mxCell>
        <mxCell id="Fn4uZTVtMZI9myQDbYoV-198" style="edgeStyle=orthogonalEdgeStyle;rounded=0;orthogonalLoop=1;jettySize=auto;html=1;exitX=1;exitY=0.5;exitDx=0;exitDy=0;entryX=0;entryY=0.5;entryDx=0;entryDy=0;endArrow=none;endFill=0;" parent="WIyWlLk6GJQsqaUBKTNV-1" source="Fn4uZTVtMZI9myQDbYoV-136" target="Fn4uZTVtMZI9myQDbYoV-68" edge="1">
          <mxGeometry relative="1" as="geometry" />
        </mxCell>
        <mxCell id="Fn4uZTVtMZI9myQDbYoV-199" style="edgeStyle=orthogonalEdgeStyle;rounded=0;orthogonalLoop=1;jettySize=auto;html=1;exitX=1;exitY=0.5;exitDx=0;exitDy=0;entryX=0;entryY=0.5;entryDx=0;entryDy=0;endArrow=none;endFill=0;" parent="WIyWlLk6GJQsqaUBKTNV-1" target="Fn4uZTVtMZI9myQDbYoV-103" edge="1">
          <mxGeometry relative="1" as="geometry" />
        </mxCell>
        <mxCell id="Fn4uZTVtMZI9myQDbYoV-200" style="edgeStyle=orthogonalEdgeStyle;rounded=0;orthogonalLoop=1;jettySize=auto;html=1;exitX=1;exitY=0.5;exitDx=0;exitDy=0;entryX=0;entryY=0.5;entryDx=0;entryDy=0;endArrow=none;endFill=0;" parent="WIyWlLk6GJQsqaUBKTNV-1" target="Fn4uZTVtMZI9myQDbYoV-171" edge="1">
          <mxGeometry relative="1" as="geometry">
            <Array as="points">
              <mxPoint x="710" y="523" />
              <mxPoint x="710" y="413" />
            </Array>
          </mxGeometry>
        </mxCell>
        <mxCell id="Fn4uZTVtMZI9myQDbYoV-205" style="edgeStyle=orthogonalEdgeStyle;rounded=0;orthogonalLoop=1;jettySize=auto;html=1;exitX=1;exitY=0.5;exitDx=0;exitDy=0;entryX=0;entryY=0.5;entryDx=0;entryDy=0;endArrow=none;endFill=0;" parent="WIyWlLk6GJQsqaUBKTNV-1" source="Fn4uZTVtMZI9myQDbYoV-79" target="Fn4uZTVtMZI9myQDbYoV-107" edge="1">
          <mxGeometry relative="1" as="geometry">
            <Array as="points">
              <mxPoint x="660" y="92" />
              <mxPoint x="660" y="218" />
            </Array>
          </mxGeometry>
        </mxCell>
        <mxCell id="Fn4uZTVtMZI9myQDbYoV-206" style="edgeStyle=orthogonalEdgeStyle;rounded=0;orthogonalLoop=1;jettySize=auto;html=1;exitX=1;exitY=0.5;exitDx=0;exitDy=0;entryX=0;entryY=0.5;entryDx=0;entryDy=0;endArrow=none;endFill=0;" parent="WIyWlLk6GJQsqaUBKTNV-1" source="Fn4uZTVtMZI9myQDbYoV-96" target="Fn4uZTVtMZI9myQDbYoV-109" edge="1">
          <mxGeometry relative="1" as="geometry" />
        </mxCell>
        <mxCell id="Fn4uZTVtMZI9myQDbYoV-207" value="1" style="text;strokeColor=none;align=center;fillColor=none;html=1;verticalAlign=middle;whiteSpace=wrap;rounded=0;fontSize=15;" parent="WIyWlLk6GJQsqaUBKTNV-1" vertex="1">
          <mxGeometry x="350" y="60" width="40" height="30" as="geometry" />
        </mxCell>
        <mxCell id="Fn4uZTVtMZI9myQDbYoV-208" value="1" style="text;strokeColor=none;align=center;fillColor=none;html=1;verticalAlign=middle;whiteSpace=wrap;rounded=0;fontSize=15;" parent="WIyWlLk6GJQsqaUBKTNV-1" vertex="1">
          <mxGeometry x="230" y="64.5" width="40" height="25.5" as="geometry" />
        </mxCell>
        <mxCell id="Fn4uZTVtMZI9myQDbYoV-209" value="1" style="text;strokeColor=none;align=center;fillColor=none;html=1;verticalAlign=middle;whiteSpace=wrap;rounded=0;fontSize=15;" parent="WIyWlLk6GJQsqaUBKTNV-1" vertex="1">
          <mxGeometry x="350" y="249" width="40" height="30" as="geometry" />
        </mxCell>
        <mxCell id="Fn4uZTVtMZI9myQDbYoV-210" value="1" style="text;strokeColor=none;align=center;fillColor=none;html=1;verticalAlign=middle;whiteSpace=wrap;rounded=0;fontSize=15;" parent="WIyWlLk6GJQsqaUBKTNV-1" vertex="1">
          <mxGeometry x="600" y="62.25" width="40" height="30" as="geometry" />
        </mxCell>
        <mxCell id="Fn4uZTVtMZI9myQDbYoV-211" value="1" style="text;strokeColor=none;align=center;fillColor=none;html=1;verticalAlign=middle;whiteSpace=wrap;rounded=0;fontSize=15;" parent="WIyWlLk6GJQsqaUBKTNV-1" vertex="1">
          <mxGeometry x="740" y="190" width="40" height="30" as="geometry" />
        </mxCell>
        <mxCell id="Fn4uZTVtMZI9myQDbYoV-212" value="1" style="text;strokeColor=none;align=center;fillColor=none;html=1;verticalAlign=middle;whiteSpace=wrap;rounded=0;fontSize=15;" parent="WIyWlLk6GJQsqaUBKTNV-1" vertex="1">
          <mxGeometry x="600" y="210" width="40" height="30" as="geometry" />
        </mxCell>
        <mxCell id="Fn4uZTVtMZI9myQDbYoV-213" value="1" style="text;strokeColor=none;align=center;fillColor=none;html=1;verticalAlign=middle;whiteSpace=wrap;rounded=0;fontSize=15;" parent="WIyWlLk6GJQsqaUBKTNV-1" vertex="1">
          <mxGeometry x="-380" y="60" width="40" height="30" as="geometry" />
        </mxCell>
        <mxCell id="Fn4uZTVtMZI9myQDbYoV-214" value="M" style="text;strokeColor=none;align=center;fillColor=none;html=1;verticalAlign=middle;whiteSpace=wrap;rounded=0;fontSize=15;" parent="WIyWlLk6GJQsqaUBKTNV-1" vertex="1">
          <mxGeometry x="-310" y="62.25" width="40" height="30" as="geometry" />
        </mxCell>
        <mxCell id="Fn4uZTVtMZI9myQDbYoV-215" value="M" style="text;strokeColor=none;align=center;fillColor=none;html=1;verticalAlign=middle;whiteSpace=wrap;rounded=0;fontSize=15;" parent="WIyWlLk6GJQsqaUBKTNV-1" vertex="1">
          <mxGeometry x="-70" y="92.25" width="40" height="30" as="geometry" />
        </mxCell>
        <mxCell id="Fn4uZTVtMZI9myQDbYoV-216" value="1" style="text;strokeColor=none;align=center;fillColor=none;html=1;verticalAlign=middle;whiteSpace=wrap;rounded=0;fontSize=15;" parent="WIyWlLk6GJQsqaUBKTNV-1" vertex="1">
          <mxGeometry x="-20" y="60" width="40" height="30" as="geometry" />
        </mxCell>
        <mxCell id="Fn4uZTVtMZI9myQDbYoV-217" value="1" style="text;strokeColor=none;align=center;fillColor=none;html=1;verticalAlign=middle;whiteSpace=wrap;rounded=0;fontSize=15;" parent="WIyWlLk6GJQsqaUBKTNV-1" vertex="1">
          <mxGeometry x="-20" y="92.25" width="40" height="30" as="geometry" />
        </mxCell>
        <mxCell id="Fn4uZTVtMZI9myQDbYoV-218" value="M" style="text;strokeColor=none;align=center;fillColor=none;html=1;verticalAlign=middle;whiteSpace=wrap;rounded=0;fontSize=15;" parent="WIyWlLk6GJQsqaUBKTNV-1" vertex="1">
          <mxGeometry x="-60" y="310" width="40" height="30" as="geometry" />
        </mxCell>
        <mxCell id="Fn4uZTVtMZI9myQDbYoV-219" value="M" style="text;strokeColor=none;align=center;fillColor=none;html=1;verticalAlign=middle;whiteSpace=wrap;rounded=0;fontSize=15;" parent="WIyWlLk6GJQsqaUBKTNV-1" vertex="1">
          <mxGeometry x="-380" y="280" width="40" height="30" as="geometry" />
        </mxCell>
        <mxCell id="Fn4uZTVtMZI9myQDbYoV-220" value="1" style="text;strokeColor=none;align=center;fillColor=none;html=1;verticalAlign=middle;whiteSpace=wrap;rounded=0;fontSize=15;" parent="WIyWlLk6GJQsqaUBKTNV-1" vertex="1">
          <mxGeometry x="-310" y="250" width="40" height="30" as="geometry" />
        </mxCell>
        <mxCell id="Fn4uZTVtMZI9myQDbYoV-224" value="M" style="text;strokeColor=none;align=center;fillColor=none;html=1;verticalAlign=middle;whiteSpace=wrap;rounded=0;fontSize=15;" parent="WIyWlLk6GJQsqaUBKTNV-1" vertex="1">
          <mxGeometry x="740" y="220" width="40" height="30" as="geometry" />
        </mxCell>
        <mxCell id="Fn4uZTVtMZI9myQDbYoV-227" value="" style="shape=table;startSize=0;container=1;collapsible=0;childLayout=tableLayout;fontSize=16;fontStyle=1;align=left;" parent="WIyWlLk6GJQsqaUBKTNV-1" vertex="1">
          <mxGeometry x="1136" y="120" width="210" height="139" as="geometry" />
        </mxCell>
        <mxCell id="Fn4uZTVtMZI9myQDbYoV-228" style="shape=tableRow;horizontal=0;startSize=0;swimlaneHead=0;swimlaneBody=0;strokeColor=inherit;top=0;left=0;bottom=0;right=0;collapsible=0;dropTarget=0;fillColor=none;points=[[0,0.5],[1,0.5]];portConstraint=eastwest;fontSize=16;" parent="Fn4uZTVtMZI9myQDbYoV-227" vertex="1">
          <mxGeometry width="210" height="29" as="geometry" />
        </mxCell>
        <mxCell id="Fn4uZTVtMZI9myQDbYoV-229" value="tour_attendance" style="shape=partialRectangle;html=1;whiteSpace=wrap;connectable=0;strokeColor=inherit;overflow=hidden;fillColor=none;top=0;left=0;bottom=0;right=0;pointerEvents=1;fontSize=16;fontStyle=1" parent="Fn4uZTVtMZI9myQDbYoV-228" vertex="1">
          <mxGeometry width="210" height="29" as="geometry">
            <mxRectangle width="210" height="29" as="alternateBounds" />
          </mxGeometry>
        </mxCell>
        <mxCell id="Fn4uZTVtMZI9myQDbYoV-230" style="shape=tableRow;horizontal=0;startSize=0;swimlaneHead=0;swimlaneBody=0;strokeColor=inherit;top=0;left=0;bottom=0;right=0;collapsible=0;dropTarget=0;fillColor=none;points=[[0,0.5],[1,0.5]];portConstraint=eastwest;fontSize=16;" parent="Fn4uZTVtMZI9myQDbYoV-227" vertex="1">
          <mxGeometry y="29" width="210" height="28" as="geometry" />
        </mxCell>
        <mxCell id="Fn4uZTVtMZI9myQDbYoV-231" value="&lt;u&gt;customer_id&lt;/u&gt;" style="shape=partialRectangle;html=1;whiteSpace=wrap;connectable=0;strokeColor=inherit;overflow=hidden;fillColor=none;top=0;left=0;bottom=0;right=0;pointerEvents=1;fontSize=16;align=left;" parent="Fn4uZTVtMZI9myQDbYoV-230" vertex="1">
          <mxGeometry width="210" height="28" as="geometry">
            <mxRectangle width="210" height="28" as="alternateBounds" />
          </mxGeometry>
        </mxCell>
        <mxCell id="Fn4uZTVtMZI9myQDbYoV-232" style="shape=tableRow;horizontal=0;startSize=0;swimlaneHead=0;swimlaneBody=0;strokeColor=inherit;top=0;left=0;bottom=0;right=0;collapsible=0;dropTarget=0;fillColor=none;points=[[0,0.5],[1,0.5]];portConstraint=eastwest;fontSize=16;" parent="Fn4uZTVtMZI9myQDbYoV-227" vertex="1">
          <mxGeometry y="57" width="210" height="29" as="geometry" />
        </mxCell>
        <mxCell id="Fn4uZTVtMZI9myQDbYoV-233" value="tour_id" style="shape=partialRectangle;html=1;whiteSpace=wrap;connectable=0;strokeColor=inherit;overflow=hidden;fillColor=none;top=0;left=0;bottom=0;right=0;pointerEvents=1;fontSize=16;align=left;fontStyle=4" parent="Fn4uZTVtMZI9myQDbYoV-232" vertex="1">
          <mxGeometry width="210" height="29" as="geometry">
            <mxRectangle width="210" height="29" as="alternateBounds" />
          </mxGeometry>
        </mxCell>
        <mxCell id="Fn4uZTVtMZI9myQDbYoV-234" style="shape=tableRow;horizontal=0;startSize=0;swimlaneHead=0;swimlaneBody=0;strokeColor=inherit;top=0;left=0;bottom=0;right=0;collapsible=0;dropTarget=0;fillColor=none;points=[[0,0.5],[1,0.5]];portConstraint=eastwest;fontSize=16;" parent="Fn4uZTVtMZI9myQDbYoV-227" vertex="1">
          <mxGeometry y="86" width="210" height="24" as="geometry" />
        </mxCell>
        <mxCell id="Fn4uZTVtMZI9myQDbYoV-235" value="attendance_date" style="shape=partialRectangle;html=1;whiteSpace=wrap;connectable=0;strokeColor=inherit;overflow=hidden;fillColor=none;top=0;left=0;bottom=0;right=0;pointerEvents=1;fontSize=16;align=left;fontStyle=4" parent="Fn4uZTVtMZI9myQDbYoV-234" vertex="1">
          <mxGeometry width="210" height="24" as="geometry">
            <mxRectangle width="210" height="24" as="alternateBounds" />
          </mxGeometry>
        </mxCell>
        <mxCell id="Fn4uZTVtMZI9myQDbYoV-236" value="" style="shape=tableRow;horizontal=0;startSize=0;swimlaneHead=0;swimlaneBody=0;strokeColor=inherit;top=0;left=0;bottom=0;right=0;collapsible=0;dropTarget=0;fillColor=none;points=[[0,0.5],[1,0.5]];portConstraint=eastwest;fontSize=16;" parent="Fn4uZTVtMZI9myQDbYoV-227" vertex="1">
          <mxGeometry y="110" width="210" height="29" as="geometry" />
        </mxCell>
        <mxCell id="Fn4uZTVtMZI9myQDbYoV-237" value="venue_id" style="shape=partialRectangle;html=1;whiteSpace=wrap;connectable=0;strokeColor=inherit;overflow=hidden;fillColor=none;top=0;left=0;bottom=0;right=0;pointerEvents=1;fontSize=16;align=left;fontStyle=4" parent="Fn4uZTVtMZI9myQDbYoV-236" vertex="1">
          <mxGeometry width="210" height="29" as="geometry">
            <mxRectangle width="210" height="29" as="alternateBounds" />
          </mxGeometry>
        </mxCell>
        <mxCell id="Fn4uZTVtMZI9myQDbYoV-179" value="" style="shape=table;startSize=0;container=1;collapsible=0;childLayout=tableLayout;fontSize=16;fontStyle=1;align=left;" parent="WIyWlLk6GJQsqaUBKTNV-1" vertex="1">
          <mxGeometry x="1450" y="120" width="210" height="120" as="geometry" />
        </mxCell>
        <mxCell id="Fn4uZTVtMZI9myQDbYoV-180" style="shape=tableRow;horizontal=0;startSize=0;swimlaneHead=0;swimlaneBody=0;strokeColor=inherit;top=0;left=0;bottom=0;right=0;collapsible=0;dropTarget=0;fillColor=none;points=[[0,0.5],[1,0.5]];portConstraint=eastwest;fontSize=16;" parent="Fn4uZTVtMZI9myQDbYoV-179" vertex="1">
          <mxGeometry width="210" height="23" as="geometry" />
        </mxCell>
        <mxCell id="Fn4uZTVtMZI9myQDbYoV-181" value="customer" style="shape=partialRectangle;html=1;whiteSpace=wrap;connectable=0;strokeColor=inherit;overflow=hidden;fillColor=none;top=0;left=0;bottom=0;right=0;pointerEvents=1;fontSize=16;fontStyle=1" parent="Fn4uZTVtMZI9myQDbYoV-180" vertex="1">
          <mxGeometry width="210" height="23" as="geometry">
            <mxRectangle width="210" height="23" as="alternateBounds" />
          </mxGeometry>
        </mxCell>
        <mxCell id="Fn4uZTVtMZI9myQDbYoV-182" style="shape=tableRow;horizontal=0;startSize=0;swimlaneHead=0;swimlaneBody=0;strokeColor=inherit;top=0;left=0;bottom=0;right=0;collapsible=0;dropTarget=0;fillColor=none;points=[[0,0.5],[1,0.5]];portConstraint=eastwest;fontSize=16;" parent="Fn4uZTVtMZI9myQDbYoV-179" vertex="1">
          <mxGeometry y="23" width="210" height="32" as="geometry" />
        </mxCell>
        <mxCell id="Fn4uZTVtMZI9myQDbYoV-183" value="&lt;u&gt;customer_id&lt;/u&gt;" style="shape=partialRectangle;html=1;whiteSpace=wrap;connectable=0;strokeColor=inherit;overflow=hidden;fillColor=none;top=0;left=0;bottom=0;right=0;pointerEvents=1;fontSize=16;align=left;" parent="Fn4uZTVtMZI9myQDbYoV-182" vertex="1">
          <mxGeometry width="210" height="32" as="geometry">
            <mxRectangle width="210" height="32" as="alternateBounds" />
          </mxGeometry>
        </mxCell>
        <mxCell id="Fn4uZTVtMZI9myQDbYoV-184" style="shape=tableRow;horizontal=0;startSize=0;swimlaneHead=0;swimlaneBody=0;strokeColor=inherit;top=0;left=0;bottom=0;right=0;collapsible=0;dropTarget=0;fillColor=none;points=[[0,0.5],[1,0.5]];portConstraint=eastwest;fontSize=16;" parent="Fn4uZTVtMZI9myQDbYoV-179" vertex="1">
          <mxGeometry y="55" width="210" height="32" as="geometry" />
        </mxCell>
        <mxCell id="Fn4uZTVtMZI9myQDbYoV-185" value="customer_first_name" style="shape=partialRectangle;html=1;whiteSpace=wrap;connectable=0;strokeColor=inherit;overflow=hidden;fillColor=none;top=0;left=0;bottom=0;right=0;pointerEvents=1;fontSize=16;align=left;" parent="Fn4uZTVtMZI9myQDbYoV-184" vertex="1">
          <mxGeometry width="210" height="32" as="geometry">
            <mxRectangle width="210" height="32" as="alternateBounds" />
          </mxGeometry>
        </mxCell>
        <mxCell id="Fn4uZTVtMZI9myQDbYoV-186" style="shape=tableRow;horizontal=0;startSize=0;swimlaneHead=0;swimlaneBody=0;strokeColor=inherit;top=0;left=0;bottom=0;right=0;collapsible=0;dropTarget=0;fillColor=none;points=[[0,0.5],[1,0.5]];portConstraint=eastwest;fontSize=16;" parent="Fn4uZTVtMZI9myQDbYoV-179" vertex="1">
          <mxGeometry y="87" width="210" height="33" as="geometry" />
        </mxCell>
        <mxCell id="Fn4uZTVtMZI9myQDbYoV-187" value="customer_last_name" style="shape=partialRectangle;html=1;whiteSpace=wrap;connectable=0;strokeColor=inherit;overflow=hidden;fillColor=none;top=0;left=0;bottom=0;right=0;pointerEvents=1;fontSize=16;align=left;" parent="Fn4uZTVtMZI9myQDbYoV-186" vertex="1">
          <mxGeometry width="210" height="33" as="geometry">
            <mxRectangle width="210" height="33" as="alternateBounds" />
          </mxGeometry>
        </mxCell>
        <mxCell id="Fn4uZTVtMZI9myQDbYoV-168" value="" style="shape=table;startSize=0;container=1;collapsible=0;childLayout=tableLayout;fontSize=16;fontStyle=1;align=left;" parent="WIyWlLk6GJQsqaUBKTNV-1" vertex="1">
          <mxGeometry x="1450" y="290" width="210" height="143" as="geometry" />
        </mxCell>
        <mxCell id="Fn4uZTVtMZI9myQDbYoV-169" style="shape=tableRow;horizontal=0;startSize=0;swimlaneHead=0;swimlaneBody=0;strokeColor=inherit;top=0;left=0;bottom=0;right=0;collapsible=0;dropTarget=0;fillColor=none;points=[[0,0.5],[1,0.5]];portConstraint=eastwest;fontSize=16;" parent="Fn4uZTVtMZI9myQDbYoV-168" vertex="1">
          <mxGeometry width="210" height="29" as="geometry" />
        </mxCell>
        <mxCell id="Fn4uZTVtMZI9myQDbYoV-170" value="MA_venue" style="shape=partialRectangle;html=1;whiteSpace=wrap;connectable=0;strokeColor=inherit;overflow=hidden;fillColor=none;top=0;left=0;bottom=0;right=0;pointerEvents=1;fontSize=16;fontStyle=1" parent="Fn4uZTVtMZI9myQDbYoV-169" vertex="1">
          <mxGeometry width="210" height="29" as="geometry">
            <mxRectangle width="210" height="29" as="alternateBounds" />
          </mxGeometry>
        </mxCell>
        <mxCell id="Fn4uZTVtMZI9myQDbYoV-171" style="shape=tableRow;horizontal=0;startSize=0;swimlaneHead=0;swimlaneBody=0;strokeColor=inherit;top=0;left=0;bottom=0;right=0;collapsible=0;dropTarget=0;fillColor=none;points=[[0,0.5],[1,0.5]];portConstraint=eastwest;fontSize=16;" parent="Fn4uZTVtMZI9myQDbYoV-168" vertex="1">
          <mxGeometry y="29" width="210" height="28" as="geometry" />
        </mxCell>
        <mxCell id="Fn4uZTVtMZI9myQDbYoV-172" value="&lt;u&gt;venue_id&lt;/u&gt;" style="shape=partialRectangle;html=1;whiteSpace=wrap;connectable=0;strokeColor=inherit;overflow=hidden;fillColor=none;top=0;left=0;bottom=0;right=0;pointerEvents=1;fontSize=16;align=left;" parent="Fn4uZTVtMZI9myQDbYoV-171" vertex="1">
          <mxGeometry width="210" height="28" as="geometry">
            <mxRectangle width="210" height="28" as="alternateBounds" />
          </mxGeometry>
        </mxCell>
        <mxCell id="Fn4uZTVtMZI9myQDbYoV-173" style="shape=tableRow;horizontal=0;startSize=0;swimlaneHead=0;swimlaneBody=0;strokeColor=inherit;top=0;left=0;bottom=0;right=0;collapsible=0;dropTarget=0;fillColor=none;points=[[0,0.5],[1,0.5]];portConstraint=eastwest;fontSize=16;" parent="Fn4uZTVtMZI9myQDbYoV-168" vertex="1">
          <mxGeometry y="57" width="210" height="33" as="geometry" />
        </mxCell>
        <mxCell id="Fn4uZTVtMZI9myQDbYoV-174" value="venue_name" style="shape=partialRectangle;html=1;whiteSpace=wrap;connectable=0;strokeColor=inherit;overflow=hidden;fillColor=none;top=0;left=0;bottom=0;right=0;pointerEvents=1;fontSize=16;align=left;" parent="Fn4uZTVtMZI9myQDbYoV-173" vertex="1">
          <mxGeometry width="210" height="33" as="geometry">
            <mxRectangle width="210" height="33" as="alternateBounds" />
          </mxGeometry>
        </mxCell>
        <mxCell id="Fn4uZTVtMZI9myQDbYoV-175" style="shape=tableRow;horizontal=0;startSize=0;swimlaneHead=0;swimlaneBody=0;strokeColor=inherit;top=0;left=0;bottom=0;right=0;collapsible=0;dropTarget=0;fillColor=none;points=[[0,0.5],[1,0.5]];portConstraint=eastwest;fontSize=16;" parent="Fn4uZTVtMZI9myQDbYoV-168" vertex="1">
          <mxGeometry y="90" width="210" height="24" as="geometry" />
        </mxCell>
        <mxCell id="Fn4uZTVtMZI9myQDbYoV-176" value="capacity" style="shape=partialRectangle;html=1;whiteSpace=wrap;connectable=0;strokeColor=inherit;overflow=hidden;fillColor=none;top=0;left=0;bottom=0;right=0;pointerEvents=1;fontSize=16;align=left;" parent="Fn4uZTVtMZI9myQDbYoV-175" vertex="1">
          <mxGeometry width="210" height="24" as="geometry">
            <mxRectangle width="210" height="24" as="alternateBounds" />
          </mxGeometry>
        </mxCell>
        <mxCell id="Fn4uZTVtMZI9myQDbYoV-177" value="" style="shape=tableRow;horizontal=0;startSize=0;swimlaneHead=0;swimlaneBody=0;strokeColor=inherit;top=0;left=0;bottom=0;right=0;collapsible=0;dropTarget=0;fillColor=none;points=[[0,0.5],[1,0.5]];portConstraint=eastwest;fontSize=16;" parent="Fn4uZTVtMZI9myQDbYoV-168" vertex="1">
          <mxGeometry y="114" width="210" height="29" as="geometry" />
        </mxCell>
        <mxCell id="Fn4uZTVtMZI9myQDbYoV-178" value="location" style="shape=partialRectangle;html=1;whiteSpace=wrap;connectable=0;strokeColor=inherit;overflow=hidden;fillColor=none;top=0;left=0;bottom=0;right=0;pointerEvents=1;fontSize=16;align=left;" parent="Fn4uZTVtMZI9myQDbYoV-177" vertex="1">
          <mxGeometry width="210" height="29" as="geometry">
            <mxRectangle width="210" height="29" as="alternateBounds" />
          </mxGeometry>
        </mxCell>
        <mxCell id="Fn4uZTVtMZI9myQDbYoV-238" style="edgeStyle=orthogonalEdgeStyle;rounded=0;orthogonalLoop=1;jettySize=auto;html=1;exitX=1;exitY=0.5;exitDx=0;exitDy=0;entryX=0;entryY=0.5;entryDx=0;entryDy=0;" parent="WIyWlLk6GJQsqaUBKTNV-1" source="Fn4uZTVtMZI9myQDbYoV-103" target="Fn4uZTVtMZI9myQDbYoV-232" edge="1">
          <mxGeometry relative="1" as="geometry" />
        </mxCell>
        <mxCell id="Fn4uZTVtMZI9myQDbYoV-239" value="1" style="text;strokeColor=none;align=center;fillColor=none;html=1;verticalAlign=middle;whiteSpace=wrap;rounded=0;fontSize=15;" parent="WIyWlLk6GJQsqaUBKTNV-1" vertex="1">
          <mxGeometry x="990" y="130" width="40" height="30" as="geometry" />
        </mxCell>
        <mxCell id="Fn4uZTVtMZI9myQDbYoV-240" value="M" style="text;strokeColor=none;align=center;fillColor=none;html=1;verticalAlign=middle;whiteSpace=wrap;rounded=0;fontSize=15;" parent="WIyWlLk6GJQsqaUBKTNV-1" vertex="1">
          <mxGeometry x="1100" y="160" width="40" height="30" as="geometry" />
        </mxCell>
        <mxCell id="Fn4uZTVtMZI9myQDbYoV-241" style="edgeStyle=orthogonalEdgeStyle;rounded=0;orthogonalLoop=1;jettySize=auto;html=1;exitX=1;exitY=0.5;exitDx=0;exitDy=0;entryX=0;entryY=0.5;entryDx=0;entryDy=0;" parent="WIyWlLk6GJQsqaUBKTNV-1" source="Fn4uZTVtMZI9myQDbYoV-230" target="Fn4uZTVtMZI9myQDbYoV-182" edge="1">
          <mxGeometry relative="1" as="geometry" />
        </mxCell>
        <mxCell id="Fn4uZTVtMZI9myQDbYoV-242" value="1" style="text;strokeColor=none;align=center;fillColor=none;html=1;verticalAlign=middle;whiteSpace=wrap;rounded=0;fontSize=15;" parent="WIyWlLk6GJQsqaUBKTNV-1" vertex="1">
          <mxGeometry x="1410" y="122.25" width="40" height="30" as="geometry" />
        </mxCell>
        <mxCell id="Fn4uZTVtMZI9myQDbYoV-243" value="M" style="text;strokeColor=none;align=center;fillColor=none;html=1;verticalAlign=middle;whiteSpace=wrap;rounded=0;fontSize=15;" parent="WIyWlLk6GJQsqaUBKTNV-1" vertex="1">
          <mxGeometry x="1346" y="140" width="40" height="30" as="geometry" />
        </mxCell>
        <mxCell id="Fn4uZTVtMZI9myQDbYoV-244" style="edgeStyle=orthogonalEdgeStyle;rounded=0;orthogonalLoop=1;jettySize=auto;html=1;exitX=1;exitY=0.5;exitDx=0;exitDy=0;entryX=0;entryY=0.5;entryDx=0;entryDy=0;" parent="WIyWlLk6GJQsqaUBKTNV-1" source="Fn4uZTVtMZI9myQDbYoV-236" target="Fn4uZTVtMZI9myQDbYoV-171" edge="1">
          <mxGeometry relative="1" as="geometry" />
        </mxCell>
        <mxCell id="Fn4uZTVtMZI9myQDbYoV-245" value="1" style="text;strokeColor=none;align=center;fillColor=none;html=1;verticalAlign=middle;whiteSpace=wrap;rounded=0;fontSize=15;" parent="WIyWlLk6GJQsqaUBKTNV-1" vertex="1">
          <mxGeometry x="1410" y="300" width="40" height="30" as="geometry" />
        </mxCell>
        <mxCell id="Fn4uZTVtMZI9myQDbYoV-246" value="1" style="text;strokeColor=none;align=center;fillColor=none;html=1;verticalAlign=middle;whiteSpace=wrap;rounded=0;fontSize=15;" parent="WIyWlLk6GJQsqaUBKTNV-1" vertex="1">
          <mxGeometry x="1346" y="210" width="40" height="30" as="geometry" />
        </mxCell>
      </root>
    </mxGraphModel>
  </diagram>
</mxfile>
